<?xml version="1.0" encoding="iso-8859-1"?>
<!-- Generator: Adobe Illustrator 19.0.0, SVG Export Plug-In . SVG Version: 6.00 Build 0)  -->
<svg version="1.1" id="Layer_1" xmlns="http://www.w3.org/2000/svg" xmlns:xlink="http://www.w3.org/1999/xlink" x="0px" y="0px"
	 viewBox="0 0 356.923 356.923" style="enable-background:new 0 0 356.923 356.923;" xml:space="preserve">
<circle style="fill:#3E4959;" cx="178.462" cy="178.462" r="178.462"/>
<g>
	<rect x="251.643" y="239.828" style="fill:#16C6CC;" width="34.139" height="13.908"/>
	<rect x="206.695" y="212.012" style="fill:#16C6CC;" width="34.144" height="41.73"/>
	<rect x="161.748" y="184.197" style="fill:#16C6CC;" width="34.142" height="69.563"/>
	<rect x="116.778" y="156.357" style="fill:#16C6CC;" width="34.149" height="97.376"/>
	<rect x="71.825" y="128.542" style="fill:#16C6CC;" width="34.142" height="125.196"/>
</g>
<g>
	<path style="fill:#FFFFFF;" d="M154.924,123.975c-9.834,0-18.166,12.994-22.277,32.386h2.471
		c3.924-17.775,11.426-30.08,19.806-30.08c12.325,0,22.737,26.523,22.737,57.915h2.309
		C179.97,150.427,168.962,123.975,154.924,123.975z"/>
	<path style="fill:#FFFFFF;" d="M199.894,151.791c-9.831,0-18.169,12.994-22.279,32.409h2.471c3.899-17.775,11.404-30.1,19.808-30.1
		c12.327,0,22.718,26.521,22.718,57.913h2.309C224.918,178.245,213.927,151.791,199.894,151.791z"/>
	<path style="fill:#FFFFFF;" d="M269.514,229.396c-1.991-28.625-12.096-49.767-24.66-49.767c-9.831,0-18.188,12.994-22.294,32.384
		h2.466c3.929-17.775,11.429-30.078,19.828-30.078c10.919,0,20.342,20.844,22.321,47.458c0.212,2.745,0.347,5.541,0.369,8.401
		l1.179,2.028l1.13-1.982C269.831,234.961,269.721,232.143,269.514,229.396z"/>
	<path style="fill:#FFFFFF;" d="M109.982,96.16c-9.834,0-18.169,12.994-22.274,32.384h2.469
		c3.902-17.772,11.402-30.078,19.806-30.078c12.303,0,22.715,26.521,22.715,57.895h2.309
		C135.006,122.617,124.015,96.16,109.982,96.16z"/>
	<polygon style="fill:#FFFFFF;" points="274.74,229.41 268.721,239.835 262.708,229.41 	"/>
</g>
<g>
	<rect x="60.281" y="265.28" style="fill:#F2F2F2;" width="231.828" height="4.618"/>
	<rect x="55.655" y="96.148" style="fill:#F2F2F2;" width="4.618" height="173.735"/>
	<polygon style="fill:#F2F2F2;" points="48.645,96.16 57.977,80.002 67.301,96.16 	"/>
	<polygon style="fill:#F2F2F2;" points="292.116,258.265 308.278,267.591 292.116,276.921 	"/>
</g>
<g>
</g>
<g>
</g>
<g>
</g>
<g>
</g>
<g>
</g>
<g>
</g>
<g>
</g>
<g>
</g>
<g>
</g>
<g>
</g>
<g>
</g>
<g>
</g>
<g>
</g>
<g>
</g>
<g>
</g>
</svg>
