<?xml version="1.0" encoding="iso-8859-1"?>
<!-- Generator: Adobe Illustrator 19.0.0, SVG Export Plug-In . SVG Version: 6.00 Build 0)  -->
<svg version="1.1" id="Layer_1" xmlns="http://www.w3.org/2000/svg" xmlns:xlink="http://www.w3.org/1999/xlink" x="0px" y="0px"
	 viewBox="0 0 417.721 417.721" style="enable-background:new 0 0 417.721 417.721;" xml:space="preserve">
<circle style="fill:#3E4959;" cx="239.259" cy="208.86" r="178.462"/>
<g>
	<polygon style="fill:#242D3C;" points="175.742,312.732 85.388,222.377 0,222.377 0,221.498 85.755,221.498 176.362,312.11 	"/>
	<polygon style="fill:#242D3C;" points="188.706,294.886 85.388,191.578 0,191.578 0,190.694 85.755,190.694 189.322,294.271 	"/>
	<polygon style="fill:#242D3C;" points="201.627,277.099 85.388,160.863 0,160.863 0,159.984 85.755,159.984 202.247,276.479 	"/>
	<polygon style="fill:#242D3C;" points="214.553,259.317 85.388,130.155 0,130.155 0,129.276 85.755,129.276 215.17,258.697 	"/>
	<polygon style="fill:#242D3C;" points="227.486,241.518 85.388,99.418 0,99.418 0,98.542 85.755,98.542 228.108,240.895 	"/>
</g>
<path style="fill:#21D8DE;" d="M358.796,158.33c-6.538-15.451-15.877-29.324-27.806-41.226
	c-11.904-11.931-25.78-21.273-41.228-27.808C273.75,82.519,256.751,79.1,239.247,79.1h-1.548
	c-16.972,0.214-33.435,3.604-48.94,10.196c-8.699,3.682-16.866,8.217-24.497,13.634l10.326,14.25
	c17.881-12.647,39.628-20.172,63.111-20.465c0.51-0.027,1.041-0.027,1.548-0.027c61.937,0,112.158,50.22,112.158,112.158
	s-50.22,112.155-112.158,112.155c-0.507,0-1.039,0-1.548-0.027c-23.483-0.29-45.231-7.818-63.111-20.465l-10.326,14.223
	c7.633,5.418,15.798,9.982,24.497,13.664c15.505,6.565,31.968,9.982,48.94,10.196h1.548c17.504,0,34.506-3.441,50.516-10.196
	c15.449-6.538,29.324-15.904,41.228-27.808c11.929-11.902,21.268-25.777,27.806-41.228c6.779-16.012,10.196-33.009,10.196-50.513
	C368.992,191.339,365.575,174.342,358.796,158.33z"/>
<path style="fill:#FFFFFF;" d="M301.29,120.784c-17.159-12.116-38.001-19.345-60.468-19.665v17.585
	c18.602,0.32,35.865,6.299,50.114,16.305c23.269,16.332,38.481,43.335,38.481,73.839c0,49.713-40.455,90.171-90.171,90.171
	c-0.507,0-1.039,0-1.548-0.03c-18.624-0.293-35.892-6.297-50.139-16.303l-10.329,14.223c17.159,12.116,38.001,19.372,60.468,19.665
	c0.51,0.027,1.041,0.027,1.548,0.027c59.429,0,107.756-48.354,107.756-107.754C347.003,172.501,328.935,140.316,301.29,120.784z"/>
<path style="fill:#242D3C;" d="M320.318,180.853c-5.632-16.226-15.985-30.262-29.435-40.401l-10.326,14.196
	c10.486,8.005,18.599,18.974,23.028,31.648c2.511,7.045,3.845,14.651,3.845,22.55c0,37.573-30.582,68.155-68.182,68.155
	c-0.507,0-1.039,0-1.548-0.03c-13.794-0.29-26.604-4.748-37.199-12.116l-10.353,14.252c13.529,9.499,29.89,15.183,47.552,15.478
	c0.51,0.027,1.041,0.027,1.548,0.027c47.286,0,85.767-38.481,85.767-85.767C325.014,199.054,323.36,189.631,320.318,180.853z"/>
<path style="fill:#FF6D3B;" d="M300.354,190.62l-16.729,5.445c1.174,4.052,1.812,8.352,1.812,12.78
	c0,4.428-0.613,8.699-1.812,12.756c-5.526,19.266-23.326,33.41-44.379,33.41c-0.507,0-1.039,0-1.548-0.027
	c-8.992-0.295-17.317-3.178-24.31-7.899l-10.326,14.223c9.876,6.855,21.802,10.993,34.636,11.286
	c0.51,0.027,1.041,0.027,1.548,0.027c28.847,0,53.29-19.239,61.108-45.58c1.735-5.762,2.671-11.872,2.671-18.198
	C303.025,202.517,302.09,196.385,300.354,190.62z"/>
<path style="fill:#FFD55C;" d="M261.716,217.783c-1.492,3.791-3.921,7.099-7.018,9.662c-4.19,3.495-9.58,5.578-15.451,5.578
	c-0.534,0-1.039-0.027-1.548-0.052c-4.16-0.266-8.032-1.573-11.367-3.68l-10.326,14.218c6.245,4.219,13.691,6.779,21.694,7.074
	c0.51,0.027,1.014,0.027,1.548,0.027c9.74,0,18.681-3.335,25.78-8.94c6.058-4.724,10.752-11.102,13.45-18.439L261.716,217.783z"/>
<path style="fill:#FFFFFF;" d="M239.257,228.366c-10.767,0-19.527-8.763-19.527-19.527c0-10.767,8.761-19.527,19.527-19.527
	c10.764,0,19.522,8.761,19.522,19.527C258.777,219.602,250.021,228.366,239.257,228.366z"/>
<rect x="4.03" y="203.223" style="fill:#21D8DE;" width="14.658" height="14.661"/>
<rect x="4.03" y="172.43" style="fill:#F2F2F2;" width="14.658" height="14.663"/>
<rect x="4.03" y="141.71" style="fill:#242D3C;" width="14.658" height="14.663"/>
<rect x="4.03" y="111.014" style="fill:#FF6D3B;" width="14.658" height="14.663"/>
<rect x="4.03" y="80.272" style="fill:#FFD55C;" width="14.658" height="14.658"/>
<g>
</g>
<g>
</g>
<g>
</g>
<g>
</g>
<g>
</g>
<g>
</g>
<g>
</g>
<g>
</g>
<g>
</g>
<g>
</g>
<g>
</g>
<g>
</g>
<g>
</g>
<g>
</g>
<g>
</g>
</svg>
